<?xml version="1.0" standalone="no"?>
<!DOCTYPE svg PUBLIC "-//W3C//DTD SVG 20010904//EN"
 "http://www.w3.org/TR/2001/REC-SVG-20010904/DTD/svg10.dtd">
<svg version="1.0" xmlns="http://www.w3.org/2000/svg"
 width="450.000000pt" height="450.000000pt" viewBox="0 0 450.000000 450.000000"
 preserveAspectRatio="xMidYMid meet">
<metadata>
Created by potrace 1.16, written by Peter Selinger 2001-2019
</metadata>
<g transform="translate(0.000000,450.000000) scale(0.100000,-0.100000)"
fill="#000000" stroke="none">
<path d="M2069 4430 c-17 -10 -33 -64 -44 -152 -3 -26 -13 -54 -21 -62 -19
-20 -124 -41 -144 -29 -8 5 -34 46 -58 92 -51 97 -70 110 -136 91 -74 -20 -81
-36 -78 -157 l2 -104 -55 -26 c-35 -15 -65 -23 -79 -19 -13 3 -52 37 -86 76
-57 64 -65 70 -101 70 -29 0 -47 -8 -74 -31 -41 -37 -44 -59 -15 -149 11 -34
20 -73 20 -85 0 -24 -41 -64 -92 -91 -33 -17 -34 -17 -131 57 -70 53 -116 54
-163 3 -21 -21 -34 -46 -34 -61 0 -15 21 -62 46 -105 l46 -79 -27 -39 c-55
-80 -93 -87 -191 -35 -72 38 -82 40 -117 24 -26 -12 -77 -84 -77 -109 1 -8 30
-49 65 -90 36 -41 65 -84 65 -96 0 -21 -43 -88 -74 -113 -14 -12 -29 -11 -107
9 -68 17 -96 20 -113 12 -29 -13 -56 -69 -56 -115 0 -39 27 -68 112 -122 42
-26 46 -32 42 -60 -10 -55 -35 -115 -54 -125 -10 -6 -58 -10 -105 -10 -47 0
-95 -4 -105 -10 -33 -18 -52 -109 -30 -149 5 -10 40 -31 77 -47 102 -42 114
-56 111 -128 -4 -73 -22 -89 -128 -111 -97 -20 -110 -33 -110 -106 0 -80 22
-98 144 -114 32 -4 57 -15 73 -31 21 -21 24 -32 21 -87 l-3 -62 -81 -40 c-45
-22 -89 -46 -98 -54 -30 -26 -13 -131 25 -152 11 -5 65 -13 120 -16 l101 -6
19 -41 c10 -23 19 -58 19 -78 0 -34 -5 -41 -65 -85 -35 -26 -72 -62 -81 -80
-16 -28 -16 -35 -3 -68 8 -21 26 -47 42 -58 26 -20 30 -20 90 -7 34 8 82 14
107 15 43 0 46 -2 77 -50 18 -27 33 -57 33 -65 0 -8 -29 -50 -65 -93 -36 -43
-65 -86 -65 -96 0 -28 57 -100 84 -107 16 -4 54 6 112 30 49 20 96 36 105 36
23 0 99 -87 99 -113 0 -12 -18 -51 -40 -88 -51 -86 -52 -117 -4 -163 61 -59
73 -58 174 19 93 71 90 70 154 23 64 -47 65 -52 36 -153 -11 -38 -20 -80 -20
-93 0 -49 93 -102 144 -82 12 4 47 38 76 74 29 36 61 68 71 71 9 3 43 -5 76
-18 l58 -23 5 -111 c6 -129 16 -148 86 -159 61 -9 81 7 134 106 l44 82 57 -5
c82 -7 96 -17 110 -84 33 -161 42 -173 124 -173 66 0 74 9 109 129 13 46 30
87 37 92 23 15 123 10 146 -6 12 -9 31 -44 44 -82 35 -105 66 -126 151 -103
47 13 58 33 58 107 0 94 14 130 61 154 64 32 106 23 146 -31 78 -105 93 -120
124 -120 41 0 106 35 114 61 4 12 -1 61 -10 111 l-18 89 24 26 c26 28 77 53
107 53 10 0 52 -29 93 -65 81 -71 102 -77 155 -44 64 39 68 74 23 179 -35 83
-31 107 24 151 54 44 66 43 147 -6 97 -58 135 -60 179 -10 45 51 41 79 -24
175 l-56 80 29 43 c59 85 58 84 173 52 117 -33 137 -29 172 38 27 53 17 78
-65 156 l-72 68 18 47 c10 26 28 59 41 74 l23 26 91 -13 c82 -11 94 -11 117 4
30 19 44 53 44 105 0 43 -24 67 -107 109 -58 29 -77 59 -68 111 13 79 37 92
207 115 41 5 48 10 57 37 17 49 14 105 -8 127 -10 10 -49 29 -87 41 -38 12
-79 31 -90 42 -28 25 -37 70 -24 119 11 40 2 35 144 84 65 23 80 44 74 106 -8
76 -28 91 -132 99 -103 8 -120 20 -137 96 -15 66 -7 77 92 135 37 21 69 46 73
55 12 31 6 90 -14 122 -18 30 -23 32 -72 32 -29 -1 -73 -5 -97 -9 -63 -13 -85
-1 -115 63 -14 30 -26 60 -26 66 0 6 27 36 61 68 78 73 94 103 79 145 -14 43
-59 87 -87 87 -12 0 -52 -11 -89 -25 -36 -14 -78 -25 -91 -25 -29 0 -74 44
-93 89 -11 28 -10 35 16 77 67 106 74 120 74 140 0 11 -16 39 -36 62 -46 54
-69 54 -164 -3 -41 -25 -84 -45 -96 -45 -24 0 -100 62 -109 89 -3 10 8 53 25
95 45 113 41 145 -21 176 -67 35 -90 28 -163 -46 -58 -59 -69 -66 -93 -59 -32
7 -109 50 -118 66 -4 5 1 52 10 104 10 52 15 101 11 110 -9 26 -69 55 -112 55
-46 0 -63 -15 -114 -98 -38 -62 -66 -77 -120 -62 -76 20 -99 62 -100 180 0 30
-4 60 -8 66 -14 21 -51 34 -101 34 -59 0 -70 -11 -102 -108 -28 -85 -46 -102
-107 -102 -77 0 -112 38 -127 134 -10 70 -39 96 -107 96 -29 0 -60 -5 -69 -10z
m-118 -671 c67 -33 72 -56 77 -339 5 -285 0 -310 -65 -336 -85 -34 -181 -85
-233 -124 -30 -23 -70 -49 -87 -56 -31 -14 -37 -12 -115 27 -207 104 -402 228
-423 269 -23 44 -18 91 13 141 83 130 396 333 632 410 102 34 148 36 201 8z
m809 -8 c103 -35 318 -144 408 -208 258 -185 307 -285 188 -390 -45 -40 -200
-131 -362 -214 -109 -55 -107 -55 -207 13 -34 24 -111 68 -172 99 -71 35 -115
64 -123 80 -10 18 -12 87 -10 297 l4 274 24 20 c66 52 84 59 135 55 28 -3 79
-15 115 -26z m-375 -946 c110 -28 196 -78 273 -159 79 -83 113 -136 142 -222
108 -311 -103 -669 -435 -739 -88 -18 -132 -18 -220 0 -113 24 -208 77 -296
164 -101 100 -146 188 -162 312 -24 191 25 347 149 479 136 144 363 212 549
165z m-1378 -105 c65 -33 172 -93 238 -133 l120 -72 6 -105 c4 -58 7 -166 8
-240 l1 -136 -77 -51 c-93 -61 -341 -197 -401 -220 -52 -20 -105 -8 -146 33
-56 56 -89 236 -89 479 0 254 38 426 107 480 52 41 97 35 233 -35z m2714 43
c39 -23 73 -96 96 -203 26 -122 25 -468 -1 -590 -23 -109 -36 -138 -76 -177
-48 -47 -114 -46 -208 1 -157 79 -397 228 -406 251 -3 9 -1 63 5 123 7 67 8
141 2 197 -4 50 -7 100 -5 112 5 31 219 171 417 272 69 35 131 40 176 14z
m-2006 -1198 c44 -29 121 -73 170 -98 50 -24 101 -54 115 -65 l25 -20 0 -264
c0 -236 -2 -267 -19 -300 -25 -52 -71 -78 -135 -78 -176 0 -602 239 -743 418
-58 72 -50 145 22 205 72 61 446 268 469 260 9 -4 52 -30 96 -58z m1425 -68
c254 -146 296 -190 271 -284 -21 -77 -231 -249 -430 -352 -273 -141 -439 -157
-482 -48 -17 45 -25 497 -9 556 10 39 16 45 68 67 96 42 154 74 232 129 41 29
82 54 90 57 17 6 110 -38 260 -125z"/>
</g>
</svg>
